<?xml version="1.0" standalone="no"?>
<!DOCTYPE svg PUBLIC "-//W3C//DTD SVG 20010904//EN"
 "http://www.w3.org/TR/2001/REC-SVG-20010904/DTD/svg10.dtd">
<svg version="1.0" xmlns="http://www.w3.org/2000/svg"
 width="223.000000pt" height="226.000000pt" viewBox="0 0 223.000000 226.000000"
 preserveAspectRatio="xMidYMid meet">

<g transform="translate(0.000000,226.000000) scale(0.100000,-0.100000)"
fill="#000000" stroke="none">
<path d="M975 2250 c-354 -45 -685 -282 -849 -607 -82 -165 -117 -317 -117
-513 0 -313 102 -566 319 -792 183 -190 410 -300 680 -329 299 -33 635 78 839
276 43 41 53 58 53 84 0 69 -57 122 -115 107 -14 -4 -63 -36 -108 -71 -166
-132 -314 -185 -537 -192 -131 -4 -154 -2 -242 20 -100 26 -203 73 -294 133
-61 40 -167 140 -162 152 1 5 107 175 233 379 l230 370 6 -216 c5 -168 10
-227 24 -263 41 -114 156 -139 251 -56 19 17 81 105 138 197 56 91 129 209
162 261 l59 95 6 -170 c4 -147 8 -178 29 -230 58 -147 210 -226 371 -192 64
13 155 81 198 146 55 86 75 163 74 296 -1 321 -126 606 -362 827 -191 180
-435 282 -699 292 -64 3 -148 1 -187 -4z m325 -215 c264 -53 501 -239 627
-490 99 -197 129 -474 63 -583 -55 -90 -174 -95 -222 -9 -8 14 -15 95 -19 232
-5 166 -9 218 -23 250 -51 120 -163 146 -264 60 -44 -39 -91 -107 -248 -360
l-99 -160 -5 280 c-5 268 -6 282 -27 316 -37 59 -114 77 -174 42 -39 -23 -65
-62 -344 -513 -131 -212 -242 -389 -246 -394 -11 -12 -62 101 -84 182 -92 356
37 748 319 968 219 172 478 234 746 179z"/>
</g>
</svg>
