<?xml version="1.0" standalone="no"?>
<!DOCTYPE svg PUBLIC "-//W3C//DTD SVG 20010904//EN"
 "http://www.w3.org/TR/2001/REC-SVG-20010904/DTD/svg10.dtd">
<svg version="1.0" xmlns="http://www.w3.org/2000/svg"
 width="300.000000pt" height="300.000000pt" viewBox="0 0 300.000000 300.000000"
 preserveAspectRatio="xMidYMid meet">

<g transform="translate(0.000000,300.000000) scale(0.100000,-0.100000)"
fill="#000000" stroke="none">
<path d="M1490 2740 c0 -15 -3 -55 -6 -89 -6 -51 -4 -61 8 -61 12 0 18 16 23
58 l7 57 17 -42 c25 -65 37 -72 58 -34 38 69 44 71 37 9 -6 -54 -5 -58 14 -58
19 0 21 7 24 85 3 74 1 85 -15 89 -13 3 -26 -9 -50 -47 l-31 -51 -18 40 c-10
21 -18 44 -18 50 0 7 -11 14 -25 16 -22 5 -25 2 -25 -22z"/>
<path d="M1407 2700 c4 -41 2 -64 -7 -75 -31 -37 -65 -6 -75 69 -5 41 -11 56
-22 56 -26 0 -12 -129 17 -152 32 -26 76 -23 107 8 22 22 25 31 19 71 -3 25
-6 54 -6 64 0 12 -7 19 -20 19 -18 0 -19 -5 -13 -60z"/>
<path d="M1205 2703 c3 -15 7 -32 8 -37 1 -6 -14 -15 -33 -22 -35 -12 -35 -12
-49 22 -16 39 -37 40 -34 3 3 -53 34 -139 50 -139 12 0 14 8 10 35 -5 32 -3
37 19 45 41 16 52 12 59 -20 6 -28 28 -40 39 -22 2 4 -5 42 -17 85 -17 61 -26
77 -41 77 -15 0 -17 -5 -11 -27z"/>
<path d="M1731 2659 c-37 -51 -50 -74 -42 -82 7 -7 16 -6 29 6 25 23 92 6 92
-23 0 -14 7 -20 21 -20 19 0 21 4 15 32 -3 18 -9 56 -13 85 -4 37 -11 57 -24
63 -10 6 -19 10 -21 10 -2 0 -27 -32 -57 -71z m69 -13 c0 -30 -2 -33 -25 -28
-30 5 -30 6 -7 37 23 33 32 31 32 -9z"/>
<path d="M1900 2625 c-35 -78 -39 -97 -22 -102 7 -3 21 15 34 44 l22 48 12
-40 c7 -22 13 -49 13 -60 1 -22 18 -45 33 -45 10 0 68 125 68 145 0 33 -22 22
-42 -19 -12 -26 -25 -46 -28 -46 -4 0 -12 29 -19 64 -18 89 -35 92 -71 11z"/>
<path d="M973 2640 c-35 -21 -41 -45 -20 -75 11 -15 22 -17 55 -11 25 3 43 2
47 -4 11 -18 -15 -40 -46 -40 -19 0 -29 -5 -29 -15 0 -25 64 -19 97 9 24 21
26 27 18 52 -9 26 -15 29 -63 32 -60 3 -66 21 -14 37 18 5 32 15 32 22 0 19
-41 16 -77 -7z"/>
<path d="M856 2582 c-3 -5 8 -28 25 -50 36 -49 27 -53 -49 -23 -33 13 -53 16
-65 10 -15 -9 -11 -18 30 -79 25 -39 50 -70 54 -70 21 0 19 25 -5 60 -14 22
-26 41 -26 44 0 2 28 -7 63 -19 60 -22 87 -23 87 -4 0 5 -19 38 -42 74 -41 61
-60 76 -72 57z"/>
<path d="M2138 2525 c-33 -18 -52 -72 -39 -108 12 -31 48 -57 78 -57 33 0 28
23 -10 40 -38 18 -47 52 -21 81 24 26 59 24 82 -6 20 -26 42 -33 42 -14 0 24
-24 52 -55 65 -41 17 -43 17 -77 -1z"/>
<path d="M653 2419 c-9 -9 -4 -32 18 -91 16 -44 29 -84 29 -89 0 -5 -11 -9
-25 -9 -19 0 -28 8 -39 34 -26 62 -77 59 -125 -6 -17 -23 -30 -42 -28 -43 1
-1 32 -25 69 -54 56 -43 69 -50 74 -36 4 8 -1 24 -10 34 -20 22 -4 41 36 41
36 0 80 46 73 76 -6 27 35 67 71 68 50 2 35 22 -38 54 -81 35 -89 37 -105 21z
m62 -41 c29 -13 31 -21 10 -38 -17 -14 -17 -15 -33 23 -13 31 -12 31 23 15z
m-105 -131 c0 -7 -8 -22 -18 -34 -17 -22 -17 -22 -42 -3 l-25 19 24 25 c19 20
28 23 42 15 11 -5 19 -15 19 -22z"/>
<path d="M2262 2413 c-17 -7 -42 -57 -42 -84 0 -30 62 -89 93 -89 38 0 87 46
87 82 0 33 -16 67 -39 85 -16 12 -75 16 -99 6z m88 -43 c24 -24 25 -38 4 -68
-20 -28 -69 -30 -84 -3 -14 28 -12 52 7 73 21 24 48 23 73 -2z"/>
<path d="M2394 2244 c-32 -25 -61 -47 -62 -49 -2 -2 0 -11 5 -19 8 -14 19 -9
73 34 62 47 77 69 54 77 -5 2 -37 -17 -70 -43z"/>
<path d="M2438 2179 c-38 -22 -68 -44 -68 -49 0 -22 24 -20 61 5 23 14 43 25
45 22 2 -2 -7 -32 -21 -66 -25 -61 -26 -81 -2 -81 17 1 137 79 137 90 0 21
-22 19 -57 -5 -21 -14 -41 -25 -45 -25 -3 0 5 28 18 61 23 57 26 89 7 89 -4 0
-38 -18 -75 -41z"/>
<path d="M422 2121 c-22 -41 -29 -62 -21 -67 7 -4 19 3 29 15 l16 23 54 -32
c49 -29 80 -33 80 -11 0 5 -25 23 -56 41 -52 29 -55 33 -49 60 11 51 -17 35
-53 -29z"/>
<path d="M1166 494 c-3 -9 -6 -17 -6 -19 0 -1 16 -6 36 -9 27 -6 34 -11 30
-24 -17 -57 -35 -155 -30 -163 3 -5 13 -9 23 -9 14 0 22 17 37 88 17 76 22 87
39 83 42 -8 50 -6 50 13 0 15 -14 22 -75 37 -93 23 -96 23 -104 3z"/>
<path d="M1670 463 c-62 -55 -47 -159 27 -190 45 -18 93 -10 130 22 23 19 26
26 15 36 -10 11 -18 10 -41 -4 -39 -23 -76 -21 -101 5 -27 29 -26 72 3 98 18
18 30 21 64 16 32 -4 42 -2 47 11 9 23 -11 33 -66 33 -38 0 -54 -6 -78 -27z"/>
<path d="M1380 408 c0 -35 -3 -87 -6 -115 -7 -52 -6 -53 20 -53 24 0 26 3 26
45 l0 45 55 0 55 0 0 -45 c0 -41 2 -45 25 -45 l25 0 0 110 0 110 -25 0 c-23 0
-25 -4 -25 -46 l0 -45 -52 3 -53 3 0 45 c0 39 -3 45 -22 48 -22 3 -23 0 -23
-60z"/>
</g>
</svg>
